<?xml version="1.0" standalone="no"?>
<!DOCTYPE svg PUBLIC "-//W3C//DTD SVG 20010904//EN"
 "http://www.w3.org/TR/2001/REC-SVG-20010904/DTD/svg10.dtd">
<svg version="1.0" xmlns="http://www.w3.org/2000/svg"
 width="356.000000pt" height="201.000000pt" viewBox="0 0 356.000000 201.000000"
 preserveAspectRatio="xMidYMid meet">

<g transform="translate(0.000000,201.000000) scale(0.100000,-0.100000)"
fill="#000000" stroke="none">
<path d="M520 1197 l0 -777 -245 0 -245 0 0 -50 0 -50 295 0 295 0 0 702 0
703 130 -130 130 -130 0 -707 0 -708 230 0 230 0 2 477 3 478 128 -128 127
-128 0 -124 0 -125 230 0 230 0 0 510 c0 281 3 510 8 510 4 0 65 -57 135 -128
l127 -127 0 -383 0 -382 215 0 215 0 0 50 0 50 -165 0 -165 0 -2 363 -1 362
-229 225 -228 225 0 -588 0 -587 -130 0 -130 0 0 93 0 94 -232 231 -233 232
-3 -555 -2 -555 -130 0 -130 0 0 696 0 697 -152 146 c-84 80 -188 179 -230
220 l-78 74 0 -776z"/>
</g>
</svg>
