<?xml version="1.0" standalone="no"?>
<!DOCTYPE svg PUBLIC "-//W3C//DTD SVG 20010904//EN"
 "http://www.w3.org/TR/2001/REC-SVG-20010904/DTD/svg10.dtd">
<svg version="1.0" xmlns="http://www.w3.org/2000/svg"
 width="356.000000pt" height="201.000000pt" viewBox="0 0 356.000000 201.000000"
 preserveAspectRatio="xMidYMid meet">

<g transform="translate(0.000000,201.000000) scale(0.100000,-0.100000)"
fill="#000000" stroke="none">
<path d="M520 1197 l0 -777 -245 0 -245 0 0 -50 0 -50 295 0 295 0 0 702 0
703 130 -130 130 -130 0 -707 0 -708 230 0 230 0 0 475 c0 273 4 475 9 475 5
0 63 -57 130 -126 l121 -126 0 -124 0 -124 230 0 230 0 0 510 c0 281 3 510 8
510 4 0 65 -57 135 -128 l127 -127 0 -383 0 -382 215 0 215 0 0 50 0 50 -165
0 -165 0 -2 363 -1 362 -229 225 -228 225 0 -588 0 -587 -130 0 -130 0 0 93 0
92 -235 235 -235 235 0 -558 0 -558 -127 3 -128 3 -5 696 -5 696 -160 153
c-88 84 -190 183 -227 219 l-68 65 0 -777z"/>
<path d="M1600 160 l0 -120 60 0 c53 0 60 2 60 20 0 17 -7 20 -40 20 -39 0
-40 1 -40 35 0 34 1 35 40 35 33 0 40 3 40 20 0 17 -7 20 -40 20 -36 0 -40 3
-40 25 0 23 4 25 40 25 33 0 40 3 40 20 0 18 -7 20 -60 20 l-60 0 0 -120z"/>
<path d="M1750 260 c0 -13 7 -20 20 -20 19 0 20 -7 20 -100 0 -93 1 -100 20
-100 19 0 20 7 20 100 0 93 1 100 20 100 13 0 20 7 20 20 0 18 -7 20 -60 20
-53 0 -60 -2 -60 -20z"/>
<path d="M1900 160 c0 -112 1 -120 20 -120 17 0 19 8 22 78 l3 77 53 -77 c74
-110 82 -106 82 42 0 100 -2 120 -15 120 -12 0 -15 -15 -15 -75 0 -41 -4 -75
-9 -75 -5 0 -31 34 -57 75 -31 49 -54 75 -66 75 -16 0 -18 -10 -18 -120z"/>
<path d="M2168 160 c-42 -109 -44 -120 -27 -120 12 0 23 10 29 25 9 22 15 25
64 25 49 0 54 -2 60 -25 4 -16 13 -25 26 -25 11 0 20 2 20 4 0 3 -20 55 -44
118 -61 155 -69 155 -128 -2z m85 13 l15 -38 -30 -3 c-16 -2 -32 -2 -34 0 -6
6 19 78 27 78 4 0 14 -17 22 -37z"/>
<path d="M2525 266 c-50 -23 -70 -52 -70 -106 0 -38 6 -54 24 -74 56 -59 153
-55 192 8 33 54 27 66 -36 66 -48 0 -55 -2 -55 -20 0 -16 7 -20 30 -20 34 0
39 -14 11 -30 -57 -30 -131 9 -131 70 0 64 82 103 137 65 18 -13 22 -13 33 0
27 33 -81 66 -135 41z"/>
<path d="M2730 160 c0 -113 1 -120 20 -120 18 0 20 7 20 55 0 30 4 55 9 55 5
0 19 -25 32 -55 18 -44 27 -55 46 -55 l23 0 -27 54 -26 54 21 27 c28 36 28 50
-3 80 -18 19 -35 25 -70 25 l-45 0 0 -120z m95 55 c0 -14 -8 -21 -27 -23 -24
-3 -28 0 -28 23 0 23 4 26 28 23 19 -2 27 -9 27 -23z"/>
<path d="M2974 266 c-77 -34 -98 -118 -44 -180 36 -40 76 -52 123 -36 106 34
113 173 12 216 -42 17 -51 17 -91 0z m101 -51 c73 -73 -37 -184 -112 -113 -30
28 -31 83 -1 115 30 32 81 31 113 -2z"/>
<path d="M3180 186 c0 -75 4 -98 18 -115 26 -32 72 -37 105 -11 26 21 27 24
27 121 0 92 -1 99 -20 99 -18 0 -20 -8 -22 -97 l-3 -98 -30 0 -30 0 -3 98 c-2
89 -4 97 -22 97 -18 0 -20 -7 -20 -94z"/>
<path d="M3390 161 c0 -114 1 -121 20 -121 18 0 20 7 20 54 0 52 1 54 32 60
44 9 58 23 58 61 0 42 -19 57 -80 63 l-50 5 0 -122z m95 54 c0 -14 -8 -21 -27
-23 -24 -3 -28 0 -28 23 0 23 4 26 28 23 19 -2 27 -9 27 -23z"/>
</g>
</svg>
